<svg width="1528" height="951" viewBox="0 0 1528 951" fill="none" xmlns="http://www.w3.org/2000/svg">
<path style="mix-blend-mode:screen" d="M782.685 805.35C648.143 805.35 538.691 695.993 538.691 561.58C538.691 427.167 648.143 317.797 782.685 317.797C917.226 317.797 1026.67 427.154 1026.67 561.58C1026.67 696.005 917.213 805.35 782.685 805.35ZM782.685 318.999C648.815 318.999 539.895 427.825 539.895 561.58C539.895 695.335 648.815 804.148 782.685 804.148C916.555 804.148 1025.46 695.322 1025.46 561.58C1025.46 427.838 916.555 318.999 782.685 318.999Z" fill="url(#paint0_linear_2_497)" fill-opacity="0.42"/>
<path d="M1 907C19.1599 849.744 46.4989 785.727 111.817 763.443C170.354 743.494 235.798 765.323 295.237 783.271C354.676 801.22 427.172 813.726 476.061 780.103C523.075 747.799 525.04 687.632 510.686 638.077C496.331 588.522 469.641 539.952 473.392 488.972C478.027 426.016 534.562 368.184 607.112 352.131C668.192 338.609 733.113 352.919 791.56 373.081C850.007 393.242 906.074 419.407 967.695 431.11C1012.29 439.568 1068.25 436.067 1091.03 402.732C1122.48 356.724 1076.6 302.97 1132.13 262.571C1152.52 247.715 1178.53 239.407 1204.68 233.768C1276.4 218.245 1338.5 207.74 1389.29 158.2C1433.56 114.997 1412.28 59.6658 1387.81 1" stroke="url(#paint1_linear_2_497)" stroke-width="0.75" stroke-miterlimit="10"/>
<path d="M12 909C30.6359 850.081 57.8591 785.036 123.455 762.051C145.103 754.47 168.069 752.499 191.648 754.136C231.463 756.956 272 769.723 310.355 780.639C321.179 783.672 332.4 786.613 343.802 789.054C396.48 800.395 453.47 801.638 492.456 772.649C525.326 748.193 534.527 709.803 532.326 671.625C531.559 658.548 529.624 645.537 526.535 632.704C521.122 610.492 513.69 588.735 507.718 567.038C500.719 541.642 495.794 516.382 499.203 490.606C500.444 481.432 502.801 472.388 506.239 463.618C524.911 415.843 574.955 375.421 634.597 361.048C694.24 346.674 754.928 357.348 809.05 373.799C814.57 375.477 820.066 377.215 825.539 379.015C873.689 394.738 920.378 413.372 972.335 421.074C984.421 422.85 996.694 423.571 1008.96 423.227C1041.43 422.287 1074.05 413.25 1090.61 389.871C1118.75 349.904 1089.29 304.524 1122.23 268.151C1126.46 263.57 1131.31 259.413 1136.67 255.763C1157.03 241.693 1182.65 233.839 1208.41 228.472C1260.33 217.676 1307.35 209.55 1348.8 187.155C1364.47 178.679 1378.72 168.481 1391.16 156.832C1435.69 115.621 1418.5 62.3121 1396.81 5" stroke="url(#paint2_linear_2_497)" stroke-width="0.75" stroke-miterlimit="10"/>
<path d="M23 912C42.1231 851.404 69.2457 785.506 135.138 761.813C156.952 753.966 180.192 751.754 204.48 753.315C245.127 755.966 286.389 768.63 325.629 779.068C336.734 782.098 348.183 784.779 359.83 787.067C413.479 797.671 471.336 796.625 509.113 766.267C540.027 741.423 548.316 703.914 547.034 666.572C546.589 653.845 545.178 641.154 542.808 628.578C538.709 607.006 532.931 586.025 528.669 565.452C523.631 541.32 520.651 517.627 525.455 493.586C527.185 484.992 529.963 476.571 533.743 468.453C554.293 424.037 604.565 386.649 662.585 371.5C720.604 356.351 777.305 363.304 827.108 376.045C832.2 377.347 837.257 378.711 842.277 380.135C886.5 392.542 928.953 407.706 977.619 412.508C989.07 413.62 1000.63 413.757 1012.11 412.917C1042.95 410.706 1074.26 401.162 1090.91 378.393C1119.06 339.702 1093.98 296.391 1127.35 262.17C1131.64 257.833 1136.48 253.911 1141.8 250.475C1162.13 237.204 1187.41 229.827 1212.8 224.813C1263.8 214.693 1310.31 207.134 1351.45 185.986C1367.01 178.03 1381.24 168.383 1393.78 157.294C1438.49 118.149 1425.39 66.93 1406.58 11" stroke="url(#paint3_linear_2_497)" stroke-width="0.75" stroke-miterlimit="10"/>
<path d="M34 915C53.5931 852.87 80.59 785.816 146.737 761.404C168.623 753.327 192.171 750.796 217.164 752.311C258.607 754.827 300.556 767.465 340.663 777.512C352.004 780.376 363.688 782.982 375.552 785.089C430.123 794.878 488.812 791.68 525.434 759.858C554.327 734.658 561.731 697.956 561.244 661.36C561.099 648.585 560.124 636.038 558.571 624.249C555.718 603.276 551.691 583.092 549.109 563.559C546.057 540.662 545.027 518.522 551.203 496.186C553.445 488.169 556.64 480.362 560.738 472.88C583.094 431.799 633.53 397.324 689.89 381.352C746.249 365.38 798.871 368.654 844.341 377.685C848.988 378.625 853.599 379.635 858.174 380.716C898.389 389.808 936.691 401.507 981.926 403.446C992.721 403.873 1003.54 403.427 1014.23 402.113C1043.32 398.567 1073.37 388.565 1090.08 366.441C1118.19 328.997 1097.53 287.643 1131.29 255.578C1135.62 251.489 1140.46 247.801 1145.73 244.576C1165.99 232.029 1190.88 225.149 1215.94 220.452C1265.98 210.981 1311.79 204.01 1352.71 184.083C1368.13 176.593 1382.33 167.466 1394.97 156.928C1439.9 119.65 1431 70.5528 1414.83 16" stroke="url(#paint4_linear_2_497)" stroke-width="0.75" stroke-miterlimit="10"/>
<path d="M47 918C67.0373 854.133 93.892 786.144 160.19 761.016C182.121 752.71 205.946 749.921 231.574 751.316C273.741 753.665 316.34 766.153 357.262 775.868C368.841 778.612 380.708 781.097 392.81 783.052C448.215 792.055 507.677 786.735 542.901 753.407C569.863 727.9 576.248 691.935 576.591 656.167C576.753 643.648 576.356 631.387 575.49 619.93C573.957 599.56 571.595 580.176 570.729 561.701C569.665 540.058 570.549 519.461 578.124 498.834C580.891 491.397 584.515 484.204 588.945 477.358C613.202 439.56 663.756 408.035 718.367 391.288C764.425 376.893 814.142 372.799 862.65 379.406C866.846 379.972 871 380.593 875.112 381.27C911.291 387.09 945.36 395.259 987.148 394.365C997.269 394.112 1007.34 393.097 1017.25 391.334C1044.52 386.499 1073.34 376.026 1090.09 354.52C1118.26 318.358 1101.94 279.059 1136.03 249.035C1140.45 245.185 1145.33 241.727 1150.58 238.714C1170.77 226.938 1195.29 220.527 1219.89 216.162C1268.9 207.341 1314.04 201.006 1354.62 182.228C1369.89 175.226 1384.05 166.625 1396.75 156.63C1441.84 121.317 1437.08 74.2729 1423.8 21" stroke="url(#paint5_linear_2_497)" stroke-width="0.75" stroke-miterlimit="10"/>
<path d="M58 920C78.4897 854.523 105.179 785.593 171.676 759.85C193.661 751.309 217.791 748.25 244.083 749.553C287.009 751.748 330.241 764.135 372.032 773.448C383.853 776.083 395.981 778.43 408.253 780.202C464.551 788.439 524.83 781.05 558.728 746.191C583.777 720.448 589.165 685.211 590.336 650.261C590.787 638.011 590.931 626.033 590.787 614.948C590.516 595.263 589.868 576.652 590.787 559.253C591.706 538.856 594.535 519.882 603.401 500.938C606.651 494.072 610.67 487.481 615.403 481.253C641.497 446.803 692.208 418.259 745.153 400.708C798.099 383.158 842.466 378.948 879.175 380.659C882.923 380.826 886.617 381.083 890.275 381.386C922.461 383.93 952.321 388.579 990.651 384.839C1000.09 383.853 1009.43 382.243 1018.57 380.023C1044.07 373.966 1071.62 362.957 1088.43 342.166C1116.56 307.338 1104.65 270.071 1139.11 242.224C1143.6 238.624 1148.49 235.399 1153.72 232.593C1173.83 221.599 1197.96 215.679 1222.2 211.62C1270.19 203.458 1314.68 197.628 1354.94 180.184C1370.08 173.661 1384.19 165.59 1396.97 156.152C1442.22 122.838 1441.59 77.9095 1431.21 26" stroke="url(#paint6_linear_2_497)" stroke-width="0.75" stroke-miterlimit="10"/>
<path d="M68 923C88.9618 855.847 115.57 785.952 182.388 759.433C204.468 750.664 228.912 747.317 255.935 748.529C299.698 750.573 343.661 762.886 386.324 771.791C398.41 774.306 410.767 776.517 423.287 778.137C480.544 785.604 541.806 776.183 574.421 739.699C597.62 713.74 601.967 679.119 603.97 645.012C604.727 633.002 605.431 621.37 605.99 610.572C606.982 591.459 608.065 573.679 610.59 557.337C613.476 538.179 618.257 520.701 628.629 503.511C632.421 497.272 636.864 491.327 641.907 485.746C669.886 454.608 720.829 429.013 772.097 410.672C823.365 392.331 863.791 384.38 896.172 382.411C899.492 382.214 902.739 382.108 905.968 382.018C934.199 381.321 959.906 382.411 994.866 375.838C1003.61 374.127 1012.22 371.936 1020.63 369.281C1044.38 361.89 1070.72 350.425 1087.64 330.206C1115.78 296.599 1108.37 261.402 1143.15 235.595C1147.72 232.255 1152.64 229.26 1157.83 226.644C1177.93 216.436 1201.71 210.969 1225.54 207.243C1272.64 199.671 1316.55 194.476 1356.56 178.24C1371.56 172.203 1385.64 164.667 1398.5 155.795C1444.03 124.445 1447.49 81.5846 1439.81 31" stroke="url(#paint7_linear_2_497)" stroke-width="0.75" stroke-miterlimit="10"/>
<path d="M80 925C101.44 856.265 127.934 785.457 195.017 758.193C217.179 749.191 241.94 745.575 269.679 746.71C314.256 748.601 358.906 760.796 402.455 769.299C414.799 771.704 427.396 773.838 440.156 775.23C498.359 781.917 560.587 770.539 591.755 732.427C613.159 706.328 616.408 672.407 619.241 639.076C620.306 627.32 621.551 616.018 622.85 605.563C624.687 588.508 627.791 571.564 632.145 554.833C637.018 536.949 643.713 521.033 655.444 505.57C659.731 499.943 664.559 494.62 669.882 489.654C699.751 461.86 750.897 439.256 800.51 420.132C850.123 401.008 886.488 389.358 914.57 383.714C917.44 383.139 920.255 382.655 923.016 382.201C947.29 378.222 968.857 375.771 1000.39 366.391C1007.5 364.272 1015.44 361.458 1023.99 358.099C1045.99 349.445 1071.1 337.477 1088.11 317.93C1116.23 285.612 1113.29 252.508 1148.39 228.8C1153.04 225.715 1157.99 222.957 1163.17 220.554C1183.23 211.113 1206.65 206.12 1230.09 202.716C1276.24 195.862 1319.56 191.187 1359.3 176.208C1374.2 170.635 1388.28 163.618 1401.24 155.299C1447.01 125.947 1454.61 85.1872 1449.71 36" stroke="url(#paint8_linear_2_497)" stroke-width="0.75" stroke-miterlimit="10"/>
<path d="M91 929C112.903 858.508 139.262 786.593 206.576 758.611C228.804 749.37 253.882 745.461 282.262 746.492C327.637 748.234 372.958 760.369 417.359 768.474C429.988 770.761 442.78 772.716 455.734 773.988C514.839 779.912 578.094 766.595 607.881 726.736C627.51 700.452 629.621 667.077 633.302 634.49C634.655 622.991 636.441 611.962 638.444 601.827C641.442 585.417 646.114 569.253 652.408 553.515C659.264 536.85 667.906 522.443 681.004 508.687C685.829 503.662 691.1 498.952 696.773 494.597C728.491 470.07 779.765 450.391 827.739 430.438C875.712 410.486 907.899 395.14 931.678 385.777C934.095 384.823 936.459 383.974 938.768 383.141C959.065 375.884 976.476 369.855 1004.55 357.674C1010.92 354.902 1018.08 351.493 1025.96 347.63C1046.19 337.692 1070.04 325.208 1087.14 306.271C1115.24 275.154 1116.81 244.158 1152.09 222.418C1156.8 219.575 1161.77 217.042 1166.94 214.843C1186.95 206.177 1209.97 201.678 1233.03 198.542C1278.23 192.406 1320.88 188.24 1360.32 174.454C1375.1 169.345 1389.14 162.844 1402.17 155.077C1448.16 127.671 1459.91 88.9185 1457.76 41" stroke="url(#paint9_linear_2_497)" stroke-width="0.75" stroke-miterlimit="10"/>
<path d="M101 931C123.4 858.848 149.666 785.97 217.317 757.227C239.645 747.742 265.062 743.591 294.164 744.515C340.391 746.106 386.455 758.152 431.761 765.864C444.623 768.045 457.701 769.864 470.906 770.97C530.989 776.121 595.443 760.909 623.732 719.288C641.67 692.909 642.519 660.076 647.107 628.288C648.662 617.588 650.905 606.966 653.827 596.47C658.014 580.655 664.278 565.278 672.506 550.621C684.058 529.837 701.566 511.774 723.466 498.045C757.084 476.833 808.64 460.167 854.975 439.364C901.311 418.561 929.473 399.576 948.911 386.5C950.898 385.167 952.831 383.939 954.673 382.742C971.04 372.136 984.281 362.576 1008.87 347.621C1014.52 344.197 1020.92 340.197 1028.14 335.833C1046.62 324.636 1069.26 311.591 1086.47 293.333C1114.56 263.455 1120.67 234.47 1156.38 214.864C1161.16 212.276 1166.14 209.973 1171.3 207.97C1191.3 200.076 1213.97 196.045 1236.68 193.242C1280.95 187.758 1323.01 184.152 1362.24 171.591C1376.96 166.943 1391.03 160.953 1404.19 153.727C1450.47 128.303 1466.28 91.6061 1467 45" stroke="url(#paint10_linear_2_497)" stroke-width="0.75" stroke-miterlimit="10"/>
<path d="M114 934C136.828 860.259 162.919 786.442 230.682 757.012C253.041 747.309 278.718 742.858 308.47 743.721C355.352 745.159 402.053 757.088 448.16 764.4C461.309 766.531 474.58 768.097 487.919 769.093C548.83 773.468 614.338 756.422 640.971 713.08C657.199 686.617 656.82 654.356 662.23 623.398C664.082 612.948 666.842 602.626 670.488 592.514C675.857 577.236 683.709 562.651 693.821 549.172C704.292 535.417 717.553 523.309 733.004 513.399C738.857 509.603 744.968 506.095 751.306 502.893C786.719 485.029 838.362 471.268 882.936 449.741C927.509 428.213 951.455 405.52 966.674 388.716C968.207 387.021 969.685 385.416 971.092 383.841C983.443 369.974 992.495 356.804 1013.68 339.121C1018.57 335.034 1024.19 330.477 1030.76 325.602C1047.44 313.158 1068.77 299.624 1086.04 282.003C1113.99 253.466 1124.56 226.61 1160.62 209.049C1165.45 206.725 1170.45 204.652 1175.59 202.842C1195.42 195.742 1217.76 192.245 1240.03 189.686C1283.31 184.857 1324.65 181.845 1363.49 170.521C1378.03 166.348 1392.01 160.898 1405.18 154.262C1451.63 130.857 1471.48 96.2347 1475 51" stroke="url(#paint11_linear_2_497)" stroke-width="0.75" stroke-miterlimit="10"/>
<path d="M125 937C148.31 861.493 174.29 786.607 242.272 756.41C264.716 746.466 290.714 741.721 321.169 742.494C368.907 743.783 416.285 755.652 463.266 762.565C476.669 764.586 490.189 766.013 503.77 766.839C565.617 770.447 632.462 751.559 657.396 706.324C672.046 679.751 670.44 647.977 676.611 617.75C678.749 607.508 682.035 597.458 686.425 587.735C693.005 572.88 702.48 559.048 714.462 546.806C726.991 534.248 742.058 523.646 758.972 515.487C765.292 512.35 771.795 509.482 778.457 506.892C815.767 492.324 867.601 481.516 910.541 459.156C953.48 436.796 973.471 410.419 984.26 389.833C985.342 387.772 986.389 385.771 987.327 383.77C995.716 366.564 1000.57 349.783 1018.38 329.334C1023.01 324.014 1027.98 318.913 1033.28 314.053C1048.22 300.41 1068.3 286.252 1085.6 269.243C1113.58 241.851 1128.79 217.111 1164.98 201.543C1169.87 199.463 1174.89 197.62 1180.03 196.025C1199.88 189.703 1221.78 186.535 1243.68 184.413C1285.97 180.153 1326.77 177.773 1365.38 167.738C1379.8 164.015 1393.74 159.083 1407 153.019C1453.71 131.584 1477.69 98.9461 1484 55" stroke="url(#paint12_linear_2_497)" stroke-width="0.75" stroke-miterlimit="10"/>
<path d="M136 939C159.785 861.824 185.644 785.862 253.966 755.006C276.47 744.817 302.799 739.844 333.946 740.496C382.489 741.618 430.564 753.399 478.422 759.919C492.061 761.832 505.814 763.122 519.62 763.785C582.42 766.621 650.67 745.879 673.769 698.876C686.852 672.236 683.893 640.987 690.894 611.542C693.328 601.489 697.15 591.709 702.281 582.4C710.19 567.912 721.34 554.838 735.125 543.888C749.923 532.182 766.308 523.98 784.95 517.081C791.573 514.64 798.52 512.396 805.703 510.334C844.88 499.068 896.907 491.214 938.178 468.046C979.449 444.878 995.42 414.842 1001.84 390.522C1002.48 388.081 1003.07 385.7 1003.65 383.396C1008.05 362.881 1008.68 342.458 1023.12 319.305C1026.83 313.36 1031.09 307.667 1035.86 302.278C1049.07 287.328 1067.87 272.666 1085.34 256.321C1113.3 230.166 1133.07 207.575 1169.51 194.004C1174.27 192.23 1179.33 190.638 1184.63 189.168C1204.48 183.633 1225.99 180.935 1247.5 179.115C1288.83 175.506 1329.02 173.717 1367.35 164.832C1381.65 161.556 1395.55 157.144 1408.85 151.656C1455.77 132.218 1483.89 101.621 1493 59" stroke="url(#paint13_linear_2_497)" stroke-width="0.75" stroke-miterlimit="10"/>
<path d="M147 942C171.248 863.234 196.976 786.437 265.517 754.824C288.105 744.418 314.734 739.117 346.56 739.677C395.886 740.662 444.617 752.325 493.33 758.445C507.215 760.234 521.207 761.387 535.241 761.898C598.929 763.958 668.75 741.48 689.877 692.599C701.442 665.91 697.094 635.206 704.924 606.593C707.676 596.726 712.035 587.225 717.878 578.358C727.14 564.265 739.893 552.002 755.279 542.398C772.04 531.962 790.37 525.312 810.378 520.132C817.505 518.299 824.812 516.678 832.371 515.224C873.416 507.287 925.611 502.409 965.195 478.461C1004.78 454.514 1016.72 420.826 1018.76 392.803C1018.98 390.001 1019.1 387.244 1019.16 384.563C1019.5 360.782 1015.93 336.789 1027.04 310.902C1029.84 304.379 1033.38 298.099 1037.61 292.149C1049.07 275.972 1066.48 260.779 1084.14 245.102C1112.04 220.2 1136.47 199.826 1173.07 188.224C1177.93 186.709 1183 185.346 1188.26 184.088C1208.11 179.362 1229.18 177.105 1250.31 175.621C1290.67 172.591 1330.22 171.44 1368.25 163.791C1382.47 160.979 1396.36 157.09 1409.74 152.173C1456.96 134.784 1489.13 106.246 1501 65" stroke="url(#paint14_linear_2_497)" stroke-width="0.75" stroke-miterlimit="10"/>
<path d="M158 945C182.707 864.478 208.297 786.596 277.024 754.214C299.675 743.598 326.6 737.971 359.097 738.486C409.196 739.32 458.591 750.923 508.148 756.687C522.262 758.373 536.477 759.386 550.727 759.72C615.306 761.009 686.649 736.727 705.819 685.917C715.918 659.133 710.129 628.905 718.804 600.982C721.846 591.268 726.716 582.026 733.231 573.606C743.98 559.805 758.419 548.31 775.394 540.041C794.114 530.82 814.366 525.708 835.772 522.25C843.383 521.022 851.137 520.021 859 519.217C901.867 514.591 954.22 512.665 992.127 487.897C1030.03 463.129 1038.01 425.713 1035.61 393.862C1035.39 390.677 1035.05 387.537 1034.65 384.489C1031.04 357.37 1023.16 329.751 1031.04 301.07C1032.95 293.995 1035.76 287.114 1039.43 280.549C1049.15 263.092 1065.36 247.334 1083.02 232.303C1110.85 208.597 1139.79 190.412 1176.69 180.735C1181.63 179.446 1186.71 178.324 1191.94 177.277C1211.78 173.364 1232.41 171.529 1253.15 170.361C1292.52 168.056 1331.44 167.419 1369.16 160.988C1383.31 158.625 1397.18 155.251 1410.64 150.902C1458.11 135.522 1494.3 108.965 1509 69" stroke="url(#paint15_linear_2_497)" stroke-width="0.75" stroke-miterlimit="10"/>
<path d="M169 948C194.263 865.893 219.67 787.075 288.71 754.024C311.446 743.143 338.694 737.278 371.915 737.717C422.837 738.384 472.966 749.841 523.384 755.206C537.748 756.776 552.208 757.651 566.691 757.827C632.23 758.343 705.33 732.277 722.347 679.676C731.044 652.822 723.754 623.165 733.264 596.115C736.68 586.553 742.127 577.589 749.342 569.655C761.648 556.23 777.716 545.568 796.114 538.619C816.848 530.663 839.043 527.101 861.834 525.359C869.936 524.737 878.074 524.359 886.321 524.131C931.09 522.828 983.655 523.858 1019.85 498.293C1056.05 472.727 1060.04 431.614 1053.29 396.198C1052.62 392.641 1051.85 389.146 1050.98 385.711C1043.37 355.326 1031.13 324.154 1035.73 292.723C1036.79 285.135 1038.88 277.671 1041.94 270.477C1049.99 251.791 1064.84 235.47 1082.63 221.134C1110.03 198.717 1144.02 182.804 1181.14 175.019C1186.17 173.973 1191.28 173.079 1196.48 172.261C1216.46 169.347 1236.64 167.555 1256.91 166.896C1295.34 165.26 1333.65 165.184 1371.11 159.986C1385.14 158.079 1398.97 155.231 1412.46 151.469C1460.22 138.194 1500.5 113.583 1518 75" stroke="url(#paint16_linear_2_497)" stroke-width="0.75" stroke-miterlimit="10"/>
<path d="M181 950C215.074 838.767 248.661 734.559 385.479 735.937C451.914 736.603 516.815 755.24 583.249 754.983C649.683 754.725 724.613 726.868 739.35 672.501C746.656 645.567 737.853 616.483 748.189 590.261C758.434 564.265 786.502 545.265 817.274 536.166C848.047 527.067 881.418 526.627 913.995 528.035C960.605 530.049 1013.33 534.091 1047.89 507.703C1086.06 478.634 1081.93 427.461 1067.61 385.917C1053.28 344.373 1031.53 301.134 1044.82 259.408C1060.88 208.598 1124.19 177.88 1185.81 168.296C1247.43 158.712 1310.98 164.617 1373.1 157.986C1435.22 151.354 1500.94 127.797 1527 80" stroke="url(#paint17_linear_2_497)" stroke-width="0.75" stroke-miterlimit="10"/>
<g style="mix-blend-mode:overlay">
<path d="M339.938 449.919C339.938 450.215 339.85 450.504 339.686 450.749C339.522 450.995 339.289 451.186 339.015 451.299C338.742 451.412 338.442 451.442 338.152 451.384C337.862 451.326 337.596 451.184 337.387 450.975C337.178 450.766 337.035 450.5 336.978 450.211C336.92 449.921 336.95 449.621 337.063 449.348C337.176 449.075 337.367 448.842 337.613 448.678C337.859 448.514 338.148 448.426 338.444 448.426C338.84 448.426 339.22 448.584 339.5 448.864C339.781 449.144 339.938 449.523 339.938 449.919Z" fill="white"/>
<path d="M339.938 462.371C339.938 462.667 339.85 462.955 339.686 463.201C339.522 463.446 339.289 463.638 339.015 463.751C338.742 463.864 338.442 463.893 338.152 463.836C337.862 463.778 337.596 463.636 337.387 463.427C337.178 463.218 337.035 462.952 336.978 462.662C336.92 462.373 336.95 462.073 337.063 461.8C337.176 461.527 337.367 461.294 337.613 461.13C337.859 460.966 338.148 460.878 338.444 460.878C338.84 460.878 339.22 461.035 339.5 461.315C339.781 461.595 339.938 461.975 339.938 462.371Z" fill="white"/>
<path d="M339.938 474.823C339.938 475.118 339.85 475.407 339.686 475.652C339.522 475.898 339.289 476.089 339.015 476.202C338.742 476.315 338.442 476.345 338.152 476.287C337.862 476.23 337.596 476.088 337.387 475.879C337.178 475.67 337.035 475.404 336.978 475.114C336.92 474.825 336.95 474.524 337.063 474.251C337.176 473.979 337.367 473.745 337.613 473.581C337.859 473.417 338.148 473.33 338.444 473.33C338.84 473.33 339.22 473.487 339.5 473.767C339.781 474.047 339.938 474.427 339.938 474.823Z" fill="white"/>
<path d="M339.938 487.275C339.938 487.57 339.85 487.859 339.686 488.104C339.522 488.35 339.289 488.541 339.015 488.654C338.742 488.767 338.442 488.797 338.152 488.739C337.862 488.682 337.596 488.539 337.387 488.33C337.178 488.122 337.035 487.856 336.978 487.566C336.92 487.276 336.95 486.976 337.063 486.703C337.176 486.43 337.367 486.197 337.613 486.033C337.859 485.869 338.148 485.781 338.444 485.781C338.84 485.781 339.22 485.939 339.5 486.219C339.781 486.499 339.938 486.879 339.938 487.275Z" fill="white"/>
<path d="M339.938 499.726C339.938 500.022 339.85 500.31 339.686 500.556C339.522 500.801 339.289 500.993 339.015 501.106C338.742 501.219 338.442 501.248 338.152 501.191C337.862 501.133 337.596 500.991 337.387 500.782C337.178 500.573 337.035 500.307 336.978 500.018C336.92 499.728 336.95 499.428 337.063 499.155C337.176 498.882 337.367 498.649 337.613 498.485C337.859 498.321 338.148 498.233 338.444 498.233C338.64 498.233 338.834 498.272 339.015 498.347C339.197 498.422 339.362 498.532 339.5 498.67C339.639 498.809 339.749 498.974 339.824 499.155C339.899 499.336 339.938 499.53 339.938 499.726Z" fill="white"/>
<path d="M351.704 449.919C351.704 450.215 351.616 450.504 351.452 450.749C351.288 450.995 351.054 451.186 350.781 451.299C350.508 451.412 350.208 451.442 349.918 451.384C349.628 451.326 349.361 451.184 349.152 450.975C348.943 450.766 348.801 450.5 348.743 450.211C348.686 449.921 348.715 449.621 348.828 449.348C348.942 449.075 349.133 448.842 349.379 448.678C349.625 448.514 349.914 448.426 350.209 448.426C350.405 448.426 350.6 448.465 350.781 448.54C350.962 448.615 351.127 448.725 351.266 448.864C351.405 449.002 351.515 449.167 351.59 449.348C351.665 449.529 351.704 449.723 351.704 449.919Z" fill="white"/>
<path d="M351.704 462.371C351.704 462.666 351.616 462.955 351.452 463.201C351.288 463.446 351.054 463.638 350.781 463.751C350.508 463.864 350.208 463.893 349.918 463.836C349.628 463.778 349.361 463.636 349.152 463.427C348.943 463.218 348.801 462.952 348.743 462.662C348.686 462.373 348.715 462.073 348.828 461.8C348.942 461.527 349.133 461.294 349.379 461.13C349.625 460.966 349.914 460.878 350.209 460.878C350.606 460.878 350.986 461.035 351.266 461.315C351.546 461.595 351.704 461.975 351.704 462.371Z" fill="white"/>
<path d="M351.704 474.823C351.704 475.118 351.616 475.407 351.452 475.653C351.288 475.898 351.054 476.09 350.781 476.203C350.508 476.316 350.208 476.345 349.918 476.288C349.628 476.23 349.361 476.088 349.152 475.879C348.943 475.67 348.801 475.404 348.743 475.114C348.686 474.825 348.715 474.524 348.828 474.252C348.942 473.979 349.133 473.746 349.379 473.581C349.625 473.417 349.914 473.33 350.209 473.33C350.606 473.33 350.986 473.487 351.266 473.767C351.546 474.047 351.704 474.427 351.704 474.823Z" fill="white"/>
<path d="M351.704 487.275C351.704 487.57 351.616 487.859 351.452 488.104C351.288 488.35 351.054 488.541 350.781 488.654C350.508 488.767 350.208 488.797 349.918 488.739C349.628 488.682 349.361 488.539 349.152 488.331C348.943 488.122 348.801 487.856 348.743 487.566C348.686 487.276 348.715 486.976 348.828 486.703C348.942 486.43 349.133 486.197 349.379 486.033C349.625 485.869 349.914 485.781 350.209 485.781C350.405 485.781 350.6 485.82 350.781 485.895C350.962 485.97 351.127 486.08 351.266 486.219C351.405 486.357 351.515 486.522 351.59 486.703C351.665 486.884 351.704 487.079 351.704 487.275Z" fill="white"/>
<path d="M351.704 499.726C351.704 500.022 351.616 500.31 351.452 500.556C351.288 500.801 351.054 500.993 350.781 501.106C350.508 501.219 350.208 501.248 349.918 501.191C349.628 501.133 349.361 500.991 349.152 500.782C348.943 500.573 348.801 500.307 348.743 500.018C348.686 499.728 348.715 499.428 348.828 499.155C348.942 498.882 349.133 498.649 349.379 498.485C349.625 498.321 349.914 498.233 350.209 498.233C350.405 498.233 350.6 498.272 350.781 498.347C350.962 498.422 351.127 498.532 351.266 498.67C351.405 498.809 351.515 498.974 351.59 499.155C351.665 499.336 351.704 499.53 351.704 499.726Z" fill="white"/>
<path d="M363.469 449.919C363.469 450.215 363.381 450.504 363.217 450.749C363.053 450.995 362.82 451.186 362.547 451.299C362.273 451.412 361.973 451.442 361.683 451.384C361.393 451.326 361.127 451.184 360.918 450.975C360.709 450.766 360.567 450.5 360.509 450.211C360.451 449.921 360.481 449.621 360.594 449.348C360.707 449.075 360.899 448.842 361.144 448.678C361.39 448.514 361.679 448.426 361.975 448.426C362.371 448.426 362.751 448.584 363.031 448.864C363.312 449.144 363.469 449.523 363.469 449.919Z" fill="white"/>
<path d="M363.469 462.371C363.469 462.667 363.381 462.955 363.217 463.201C363.053 463.446 362.82 463.638 362.547 463.751C362.273 463.864 361.973 463.893 361.683 463.836C361.393 463.778 361.127 463.636 360.918 463.427C360.709 463.218 360.567 462.952 360.509 462.662C360.451 462.373 360.481 462.073 360.594 461.8C360.707 461.527 360.899 461.294 361.144 461.13C361.39 460.966 361.679 460.878 361.975 460.878C362.371 460.878 362.751 461.035 363.031 461.315C363.312 461.595 363.469 461.975 363.469 462.371Z" fill="white"/>
<path d="M363.469 474.823C363.469 475.118 363.381 475.407 363.217 475.653C363.053 475.898 362.82 476.089 362.547 476.202C362.273 476.315 361.973 476.345 361.683 476.287C361.393 476.23 361.127 476.088 360.918 475.879C360.709 475.67 360.567 475.404 360.509 475.114C360.451 474.825 360.481 474.524 360.594 474.252C360.707 473.979 360.899 473.745 361.144 473.581C361.39 473.417 361.679 473.33 361.975 473.33C362.371 473.33 362.751 473.487 363.031 473.767C363.312 474.047 363.469 474.427 363.469 474.823Z" fill="white"/>
<path d="M363.469 487.275C363.469 487.57 363.381 487.859 363.217 488.104C363.053 488.35 362.82 488.541 362.547 488.654C362.273 488.767 361.973 488.797 361.683 488.739C361.393 488.682 361.127 488.539 360.918 488.33C360.709 488.122 360.567 487.856 360.509 487.566C360.451 487.276 360.481 486.976 360.594 486.703C360.707 486.43 360.899 486.197 361.144 486.033C361.39 485.869 361.679 485.781 361.975 485.781C362.371 485.781 362.751 485.939 363.031 486.219C363.312 486.499 363.469 486.879 363.469 487.275Z" fill="white"/>
<path d="M363.469 499.726C363.469 500.022 363.381 500.31 363.217 500.556C363.053 500.802 362.82 500.993 362.547 501.106C362.273 501.219 361.973 501.248 361.683 501.191C361.393 501.133 361.127 500.991 360.918 500.782C360.709 500.573 360.567 500.307 360.509 500.018C360.451 499.728 360.481 499.428 360.594 499.155C360.707 498.882 360.899 498.649 361.144 498.485C361.39 498.321 361.679 498.233 361.975 498.233C362.171 498.233 362.365 498.272 362.547 498.347C362.728 498.422 362.893 498.532 363.031 498.671C363.17 498.809 363.28 498.974 363.355 499.155C363.43 499.336 363.469 499.53 363.469 499.726Z" fill="white"/>
<path d="M375.235 449.919C375.235 450.215 375.147 450.504 374.983 450.749C374.819 450.995 374.585 451.186 374.312 451.299C374.039 451.412 373.739 451.442 373.449 451.384C373.159 451.326 372.893 451.184 372.684 450.975C372.475 450.766 372.332 450.5 372.275 450.211C372.217 449.921 372.247 449.621 372.36 449.348C372.473 449.075 372.664 448.842 372.91 448.678C373.156 448.514 373.445 448.426 373.74 448.426C374.137 448.426 374.517 448.584 374.797 448.864C375.077 449.144 375.235 449.523 375.235 449.919Z" fill="white"/>
<path d="M375.235 462.371C375.235 462.666 375.147 462.955 374.983 463.201C374.819 463.446 374.585 463.638 374.312 463.751C374.039 463.864 373.739 463.893 373.449 463.836C373.159 463.778 372.893 463.636 372.684 463.427C372.475 463.218 372.332 462.952 372.275 462.662C372.217 462.373 372.247 462.073 372.36 461.8C372.473 461.527 372.664 461.294 372.91 461.13C373.156 460.966 373.445 460.878 373.74 460.878C374.137 460.878 374.517 461.035 374.797 461.315C375.077 461.595 375.235 461.975 375.235 462.371Z" fill="white"/>
<path d="M375.235 474.823C375.235 475.118 375.147 475.407 374.983 475.653C374.819 475.898 374.585 476.09 374.312 476.203C374.039 476.316 373.739 476.345 373.449 476.288C373.159 476.23 372.893 476.088 372.684 475.879C372.475 475.67 372.332 475.404 372.275 475.114C372.217 474.825 372.247 474.524 372.36 474.252C372.473 473.979 372.664 473.746 372.91 473.581C373.156 473.417 373.445 473.33 373.74 473.33C374.137 473.33 374.517 473.487 374.797 473.767C375.077 474.047 375.235 474.427 375.235 474.823Z" fill="white"/>
<path d="M375.235 487.275C375.235 487.57 375.147 487.859 374.983 488.104C374.819 488.35 374.585 488.541 374.312 488.654C374.039 488.767 373.739 488.797 373.449 488.739C373.159 488.682 372.893 488.539 372.684 488.331C372.475 488.122 372.332 487.856 372.275 487.566C372.217 487.276 372.247 486.976 372.36 486.703C372.473 486.43 372.664 486.197 372.91 486.033C373.156 485.869 373.445 485.781 373.74 485.781C374.137 485.781 374.517 485.939 374.797 486.219C375.077 486.499 375.235 486.879 375.235 487.275Z" fill="white"/>
<path d="M375.235 499.726C375.235 500.022 375.147 500.31 374.983 500.556C374.819 500.801 374.585 500.993 374.312 501.106C374.039 501.219 373.739 501.248 373.449 501.191C373.159 501.133 372.893 500.991 372.684 500.782C372.475 500.573 372.332 500.307 372.275 500.018C372.217 499.728 372.247 499.428 372.36 499.155C372.473 498.882 372.664 498.649 372.91 498.485C373.156 498.321 373.445 498.233 373.74 498.233C373.937 498.233 374.131 498.272 374.312 498.347C374.494 498.422 374.658 498.532 374.797 498.67C374.936 498.809 375.046 498.974 375.121 499.155C375.196 499.336 375.235 499.53 375.235 499.726Z" fill="white"/>
</g>
<g style="mix-blend-mode:overlay">
<path d="M1093.65 816.22C1093.36 816.22 1093.07 816.133 1092.82 815.969C1092.57 815.804 1092.38 815.571 1092.27 815.298C1092.16 815.026 1092.13 814.725 1092.18 814.436C1092.24 814.146 1092.38 813.88 1092.59 813.671C1092.8 813.462 1093.07 813.32 1093.36 813.262C1093.65 813.205 1093.95 813.234 1094.22 813.347C1094.5 813.46 1094.73 813.652 1094.89 813.897C1095.06 814.143 1095.15 814.432 1095.15 814.727C1095.15 815.123 1094.99 815.503 1094.71 815.783C1094.43 816.063 1094.05 816.22 1093.65 816.22Z" fill="white"/>
<path d="M1081.16 816.22C1080.87 816.22 1080.58 816.133 1080.33 815.969C1080.09 815.804 1079.89 815.571 1079.78 815.298C1079.67 815.026 1079.64 814.725 1079.7 814.436C1079.75 814.146 1079.9 813.88 1080.11 813.671C1080.31 813.462 1080.58 813.32 1080.87 813.262C1081.16 813.205 1081.46 813.234 1081.73 813.347C1082.01 813.46 1082.24 813.652 1082.4 813.897C1082.57 814.143 1082.66 814.432 1082.66 814.727C1082.66 815.123 1082.5 815.503 1082.22 815.783C1081.94 816.063 1081.56 816.22 1081.16 816.22Z" fill="white"/>
<path d="M1068.7 816.22C1068.4 816.22 1068.11 816.133 1067.87 815.969C1067.62 815.804 1067.43 815.571 1067.32 815.298C1067.2 815.026 1067.17 814.725 1067.23 814.436C1067.29 814.146 1067.43 813.88 1067.64 813.671C1067.85 813.462 1068.12 813.32 1068.41 813.262C1068.7 813.205 1069 813.234 1069.27 813.347C1069.54 813.46 1069.78 813.652 1069.94 813.897C1070.1 814.143 1070.19 814.432 1070.19 814.727C1070.19 815.123 1070.03 815.503 1069.75 815.783C1069.47 816.063 1069.09 816.22 1068.7 816.22Z" fill="white"/>
<path d="M1056.24 816.22C1055.94 816.218 1055.65 816.128 1055.41 815.962C1055.16 815.797 1054.98 815.563 1054.86 815.29C1054.75 815.017 1054.72 814.717 1054.78 814.428C1054.84 814.139 1054.99 813.874 1055.2 813.667C1055.41 813.459 1055.67 813.318 1055.96 813.262C1056.25 813.205 1056.55 813.235 1056.82 813.349C1057.1 813.462 1057.33 813.653 1057.49 813.899C1057.66 814.144 1057.74 814.432 1057.74 814.727C1057.74 814.924 1057.7 815.119 1057.63 815.301C1057.55 815.483 1057.44 815.648 1057.3 815.787C1057.16 815.926 1056.99 816.036 1056.81 816.11C1056.63 816.184 1056.43 816.222 1056.24 816.22Z" fill="white"/>
<path d="M1043.79 816.22C1043.49 816.22 1043.2 816.133 1042.96 815.969C1042.71 815.804 1042.52 815.571 1042.41 815.298C1042.29 815.026 1042.26 814.725 1042.32 814.436C1042.38 814.146 1042.52 813.88 1042.73 813.671C1042.94 813.462 1043.21 813.32 1043.5 813.262C1043.79 813.205 1044.09 813.234 1044.36 813.347C1044.63 813.46 1044.87 813.652 1045.03 813.897C1045.19 814.143 1045.28 814.432 1045.28 814.727C1045.28 815.123 1045.12 815.503 1044.84 815.783C1044.56 816.063 1044.18 816.22 1043.79 816.22Z" fill="white"/>
<path d="M1093.65 827.976C1093.36 827.976 1093.07 827.888 1092.82 827.724C1092.57 827.56 1092.38 827.327 1092.27 827.054C1092.16 826.781 1092.13 826.481 1092.18 826.191C1092.24 825.902 1092.38 825.636 1092.59 825.427C1092.8 825.218 1093.07 825.076 1093.36 825.018C1093.65 824.96 1093.95 824.99 1094.22 825.103C1094.5 825.216 1094.73 825.407 1094.89 825.653C1095.06 825.899 1095.15 826.187 1095.15 826.483C1095.15 826.879 1094.99 827.258 1094.71 827.538C1094.43 827.818 1094.05 827.976 1093.65 827.976Z" fill="white"/>
<path d="M1081.16 827.976C1080.87 827.976 1080.58 827.888 1080.33 827.724C1080.09 827.56 1079.89 827.327 1079.78 827.054C1079.67 826.781 1079.64 826.481 1079.7 826.191C1079.75 825.902 1079.9 825.636 1080.11 825.427C1080.31 825.218 1080.58 825.076 1080.87 825.018C1081.16 824.96 1081.46 824.99 1081.73 825.103C1082.01 825.216 1082.24 825.407 1082.4 825.653C1082.57 825.899 1082.66 826.187 1082.66 826.483C1082.66 826.879 1082.5 827.258 1082.22 827.538C1081.94 827.818 1081.56 827.976 1081.16 827.976Z" fill="white"/>
<path d="M1068.7 827.976C1068.4 827.976 1068.11 827.888 1067.87 827.724C1067.62 827.56 1067.43 827.327 1067.32 827.054C1067.2 826.781 1067.17 826.481 1067.23 826.191C1067.29 825.902 1067.43 825.636 1067.64 825.427C1067.85 825.218 1068.12 825.076 1068.41 825.018C1068.7 824.96 1069 824.99 1069.27 825.103C1069.54 825.216 1069.78 825.407 1069.94 825.653C1070.1 825.899 1070.19 826.187 1070.19 826.483C1070.19 826.879 1070.03 827.258 1069.75 827.538C1069.47 827.818 1069.09 827.976 1068.7 827.976Z" fill="white"/>
<path d="M1056.24 827.976C1055.94 827.973 1055.65 827.884 1055.41 827.718C1055.16 827.552 1054.98 827.318 1054.86 827.045C1054.75 826.772 1054.72 826.472 1054.78 826.183C1054.84 825.895 1054.99 825.63 1055.2 825.422C1055.41 825.215 1055.67 825.074 1055.96 825.017C1056.25 824.961 1056.55 824.991 1056.82 825.104C1057.1 825.218 1057.33 825.409 1057.49 825.654C1057.66 825.9 1057.74 826.188 1057.74 826.482C1057.74 826.68 1057.7 826.875 1057.63 827.057C1057.55 827.239 1057.44 827.404 1057.3 827.543C1057.16 827.682 1056.99 827.791 1056.81 827.866C1056.63 827.94 1056.43 827.977 1056.24 827.976Z" fill="white"/>
<path d="M1043.79 827.976C1043.49 827.976 1043.2 827.888 1042.96 827.724C1042.71 827.56 1042.52 827.327 1042.41 827.054C1042.29 826.781 1042.26 826.481 1042.32 826.191C1042.38 825.902 1042.52 825.636 1042.73 825.427C1042.94 825.218 1043.21 825.076 1043.5 825.018C1043.79 824.961 1044.09 824.99 1044.36 825.103C1044.63 825.216 1044.87 825.408 1045.03 825.653C1045.19 825.899 1045.28 826.187 1045.28 826.483C1045.28 826.879 1045.12 827.258 1044.84 827.538C1044.56 827.818 1044.18 827.976 1043.79 827.976Z" fill="white"/>
<path d="M1093.65 839.732C1093.36 839.732 1093.07 839.644 1092.82 839.48C1092.57 839.316 1092.38 839.083 1092.27 838.81C1092.16 838.537 1092.13 838.237 1092.18 837.947C1092.24 837.657 1092.38 837.391 1092.59 837.183C1092.8 836.974 1093.07 836.832 1093.36 836.774C1093.65 836.716 1093.95 836.746 1094.22 836.859C1094.5 836.972 1094.73 837.163 1094.89 837.409C1095.06 837.654 1095.15 837.943 1095.15 838.238C1095.15 838.634 1094.99 839.014 1094.71 839.294C1094.43 839.574 1094.05 839.732 1093.65 839.732Z" fill="white"/>
<path d="M1081.16 839.732C1080.87 839.732 1080.58 839.644 1080.33 839.48C1080.09 839.316 1079.89 839.083 1079.78 838.81C1079.67 838.537 1079.64 838.237 1079.7 837.947C1079.75 837.657 1079.9 837.391 1080.11 837.183C1080.31 836.974 1080.58 836.832 1080.87 836.774C1081.16 836.716 1081.46 836.746 1081.73 836.859C1082.01 836.972 1082.24 837.163 1082.4 837.409C1082.57 837.654 1082.66 837.943 1082.66 838.238C1082.66 838.634 1082.5 839.014 1082.22 839.294C1081.94 839.574 1081.56 839.732 1081.16 839.732Z" fill="white"/>
<path d="M1068.7 839.732C1068.4 839.732 1068.11 839.644 1067.87 839.48C1067.62 839.316 1067.43 839.083 1067.32 838.81C1067.2 838.537 1067.17 838.237 1067.23 837.947C1067.29 837.657 1067.43 837.391 1067.64 837.183C1067.85 836.974 1068.12 836.832 1068.41 836.774C1068.7 836.716 1069 836.746 1069.27 836.859C1069.54 836.972 1069.78 837.163 1069.94 837.409C1070.1 837.654 1070.19 837.943 1070.19 838.238C1070.19 838.634 1070.03 839.014 1069.75 839.294C1069.47 839.574 1069.09 839.732 1068.7 839.732Z" fill="white"/>
<path d="M1056.24 839.732C1055.94 839.729 1055.65 839.639 1055.41 839.474C1055.16 839.308 1054.98 839.074 1054.86 838.801C1054.75 838.528 1054.72 838.228 1054.78 837.939C1054.84 837.651 1054.99 837.386 1055.2 837.178C1055.41 836.971 1055.67 836.83 1055.96 836.773C1056.25 836.716 1056.55 836.747 1056.82 836.86C1057.1 836.974 1057.33 837.165 1057.49 837.41C1057.66 837.655 1057.74 837.944 1057.74 838.238C1057.74 838.436 1057.7 838.631 1057.63 838.813C1057.55 838.995 1057.44 839.16 1057.3 839.299C1057.16 839.438 1056.99 839.547 1056.81 839.622C1056.63 839.696 1056.43 839.733 1056.24 839.732Z" fill="white"/>
<path d="M1043.79 839.732C1043.49 839.732 1043.2 839.644 1042.96 839.48C1042.71 839.316 1042.52 839.083 1042.41 838.81C1042.29 838.537 1042.26 838.237 1042.32 837.947C1042.38 837.657 1042.52 837.391 1042.73 837.183C1042.94 836.974 1043.21 836.831 1043.5 836.774C1043.79 836.716 1044.09 836.746 1044.36 836.859C1044.63 836.972 1044.87 837.163 1045.03 837.409C1045.19 837.654 1045.28 837.943 1045.28 838.238C1045.28 838.634 1045.12 839.014 1044.84 839.294C1044.56 839.574 1044.18 839.732 1043.79 839.732Z" fill="white"/>
<path d="M1093.65 851.487C1093.36 851.487 1093.07 851.4 1092.82 851.236C1092.57 851.072 1092.38 850.839 1092.27 850.566C1092.16 850.293 1092.13 849.993 1092.18 849.703C1092.24 849.413 1092.38 849.147 1092.59 848.938C1092.8 848.73 1093.07 848.587 1093.36 848.53C1093.65 848.472 1093.95 848.502 1094.22 848.615C1094.5 848.728 1094.73 848.919 1094.89 849.165C1095.06 849.41 1095.15 849.699 1095.15 849.994C1095.15 850.39 1094.99 850.77 1094.71 851.05C1094.43 851.33 1094.05 851.487 1093.65 851.487Z" fill="white"/>
<path d="M1081.16 851.487C1080.87 851.487 1080.58 851.4 1080.33 851.236C1080.09 851.072 1079.89 850.839 1079.78 850.566C1079.67 850.293 1079.64 849.993 1079.7 849.703C1079.75 849.413 1079.9 849.147 1080.11 848.938C1080.31 848.73 1080.58 848.587 1080.87 848.53C1081.16 848.472 1081.46 848.502 1081.73 848.615C1082.01 848.728 1082.24 848.919 1082.4 849.165C1082.57 849.41 1082.66 849.699 1082.66 849.994C1082.66 850.39 1082.5 850.77 1082.22 851.05C1081.94 851.33 1081.56 851.487 1081.16 851.487Z" fill="white"/>
<path d="M1068.7 851.487C1068.4 851.487 1068.11 851.4 1067.87 851.236C1067.62 851.072 1067.43 850.839 1067.32 850.566C1067.2 850.293 1067.17 849.993 1067.23 849.703C1067.29 849.413 1067.43 849.147 1067.64 848.938C1067.85 848.73 1068.12 848.587 1068.41 848.53C1068.7 848.472 1069 848.502 1069.27 848.615C1069.54 848.728 1069.78 848.919 1069.94 849.165C1070.1 849.41 1070.19 849.699 1070.19 849.994C1070.19 850.39 1070.03 850.77 1069.75 851.05C1069.47 851.33 1069.09 851.487 1068.7 851.487Z" fill="white"/>
<path d="M1056.24 851.487C1055.94 851.485 1055.65 851.395 1055.41 851.23C1055.16 851.064 1054.98 850.83 1054.86 850.557C1054.75 850.284 1054.72 849.984 1054.78 849.695C1054.84 849.406 1054.99 849.142 1055.2 848.934C1055.41 848.726 1055.67 848.585 1055.96 848.529C1056.25 848.472 1056.55 848.503 1056.82 848.616C1057.1 848.729 1057.33 848.921 1057.49 849.166C1057.66 849.411 1057.74 849.699 1057.74 849.994C1057.74 850.191 1057.7 850.387 1057.63 850.569C1057.55 850.751 1057.44 850.916 1057.3 851.055C1057.16 851.193 1056.99 851.303 1056.81 851.377C1056.63 851.452 1056.43 851.489 1056.24 851.487Z" fill="white"/>
<path d="M1043.79 851.487C1043.49 851.487 1043.2 851.4 1042.96 851.236C1042.71 851.072 1042.52 850.838 1042.41 850.566C1042.29 850.293 1042.26 849.992 1042.32 849.703C1042.38 849.413 1042.52 849.147 1042.73 848.938C1042.94 848.729 1043.21 848.587 1043.5 848.53C1043.79 848.472 1044.09 848.502 1044.36 848.615C1044.63 848.728 1044.87 848.919 1045.03 849.165C1045.19 849.41 1045.28 849.699 1045.28 849.994C1045.28 850.39 1045.12 850.77 1044.84 851.05C1044.56 851.33 1044.18 851.487 1043.79 851.487Z" fill="white"/>
</g>
<g style="mix-blend-mode:overlay">
<path d="M897.341 367.465C896.967 367.467 896.601 367.359 896.289 367.153C895.977 366.948 895.733 366.654 895.589 366.31C895.444 365.965 895.405 365.586 895.476 365.219C895.548 364.853 895.726 364.516 895.99 364.251C896.253 363.986 896.589 363.805 896.956 363.731C897.322 363.657 897.702 363.694 898.048 363.836C898.393 363.978 898.689 364.22 898.897 364.53C899.105 364.841 899.216 365.206 899.216 365.579C899.216 366.077 899.019 366.555 898.667 366.908C898.316 367.261 897.839 367.461 897.341 367.465Z" fill="white"/>
<path d="M881.586 367.465C881.213 367.465 880.848 367.354 880.538 367.147C880.228 366.94 879.986 366.645 879.843 366.301C879.7 365.956 879.663 365.577 879.735 365.211C879.808 364.846 879.988 364.51 880.252 364.246C880.516 363.982 880.852 363.803 881.218 363.73C881.584 363.657 881.964 363.695 882.308 363.837C882.653 363.98 882.948 364.222 883.155 364.532C883.363 364.842 883.473 365.206 883.473 365.579C883.473 366.079 883.275 366.559 882.921 366.913C882.567 367.266 882.087 367.465 881.586 367.465Z" fill="white"/>
<path d="M865.895 367.465C865.522 367.465 865.157 367.354 864.846 367.147C864.536 366.94 864.294 366.645 864.151 366.301C864.009 365.956 863.971 365.577 864.044 365.211C864.117 364.846 864.297 364.51 864.561 364.246C864.824 363.982 865.161 363.803 865.527 363.73C865.893 363.657 866.272 363.695 866.617 363.837C866.962 363.98 867.257 364.222 867.464 364.532C867.671 364.842 867.782 365.206 867.782 365.579C867.782 366.079 867.583 366.559 867.229 366.913C866.875 367.266 866.395 367.465 865.895 367.465Z" fill="white"/>
<path d="M850.201 367.465C849.827 367.467 849.461 367.359 849.149 367.153C848.837 366.948 848.593 366.654 848.448 366.31C848.303 365.965 848.264 365.586 848.336 365.219C848.407 364.853 848.586 364.516 848.849 364.251C849.112 363.986 849.449 363.805 849.815 363.731C850.181 363.657 850.562 363.694 850.907 363.836C851.253 363.978 851.548 364.22 851.756 364.53C851.964 364.841 852.075 365.206 852.075 365.579C852.075 366.077 851.878 366.555 851.527 366.908C851.176 367.261 850.699 367.461 850.201 367.465Z" fill="white"/>
<path d="M834.496 367.465C834.123 367.465 833.758 367.354 833.448 367.147C833.138 366.94 832.896 366.645 832.753 366.301C832.61 365.956 832.573 365.577 832.646 365.211C832.718 364.846 832.898 364.51 833.162 364.246C833.426 363.982 833.762 363.803 834.128 363.73C834.494 363.657 834.874 363.695 835.219 363.837C835.563 363.98 835.858 364.222 836.066 364.532C836.273 364.842 836.384 365.206 836.384 365.579C836.384 366.079 836.185 366.559 835.831 366.913C835.477 367.266 834.997 367.465 834.496 367.465Z" fill="white"/>
<path d="M897.289 382.27C898.332 382.27 899.177 381.426 899.177 380.385C899.177 379.343 898.332 378.499 897.289 378.499C896.247 378.499 895.402 379.343 895.402 380.385C895.402 381.426 896.247 382.27 897.289 382.27Z" fill="white"/>
<path d="M881.586 382.27C882.629 382.27 883.473 381.426 883.473 380.385C883.473 379.343 882.629 378.499 881.586 378.499C880.544 378.499 879.699 379.343 879.699 380.385C879.699 381.426 880.544 382.27 881.586 382.27Z" fill="white"/>
<path d="M865.895 382.27C866.937 382.27 867.782 381.426 867.782 380.385C867.782 379.343 866.937 378.499 865.895 378.499C864.853 378.499 864.008 379.343 864.008 380.385C864.008 381.426 864.853 382.27 865.895 382.27Z" fill="white"/>
<path d="M850.2 382.27C851.242 382.27 852.087 381.426 852.087 380.385C852.087 379.343 851.242 378.499 850.2 378.499C849.157 378.499 848.312 379.343 848.312 380.385C848.312 381.426 849.157 382.27 850.2 382.27Z" fill="white"/>
<path d="M834.496 382.27C835.539 382.27 836.384 381.426 836.384 380.385C836.384 379.343 835.539 378.499 834.496 378.499C833.454 378.499 832.609 379.343 832.609 380.385C832.609 381.426 833.454 382.27 834.496 382.27Z" fill="white"/>
<path d="M897.289 397.076C898.332 397.076 899.177 396.231 899.177 395.19C899.177 394.149 898.332 393.305 897.289 393.305C896.247 393.305 895.402 394.149 895.402 395.19C895.402 396.231 896.247 397.076 897.289 397.076Z" fill="white"/>
<path d="M881.586 397.076C882.629 397.076 883.473 396.231 883.473 395.19C883.473 394.149 882.629 393.305 881.586 393.305C880.544 393.305 879.699 394.149 879.699 395.19C879.699 396.231 880.544 397.076 881.586 397.076Z" fill="white"/>
<path d="M865.895 397.076C866.937 397.076 867.782 396.231 867.782 395.19C867.782 394.149 866.937 393.305 865.895 393.305C864.853 393.305 864.008 394.149 864.008 395.19C864.008 396.231 864.853 397.076 865.895 397.076Z" fill="white"/>
<path d="M850.2 397.076C851.242 397.076 852.087 396.231 852.087 395.19C852.087 394.149 851.242 393.305 850.2 393.305C849.157 393.305 848.312 394.149 848.312 395.19C848.312 396.231 849.157 397.076 850.2 397.076Z" fill="white"/>
<path d="M834.496 397.076C835.539 397.076 836.384 396.231 836.384 395.19C836.384 394.149 835.539 393.305 834.496 393.305C833.454 393.305 832.609 394.149 832.609 395.19C832.609 396.231 833.454 397.076 834.496 397.076Z" fill="white"/>
<path d="M897.289 411.894C898.332 411.894 899.177 411.05 899.177 410.008C899.177 408.967 898.332 408.123 897.289 408.123C896.247 408.123 895.402 408.967 895.402 410.008C895.402 411.05 896.247 411.894 897.289 411.894Z" fill="white"/>
<path d="M881.586 411.894C882.629 411.894 883.473 411.05 883.473 410.008C883.473 408.967 882.629 408.123 881.586 408.123C880.544 408.123 879.699 408.967 879.699 410.008C879.699 411.05 880.544 411.894 881.586 411.894Z" fill="white"/>
<path d="M865.895 411.894C866.937 411.894 867.782 411.05 867.782 410.008C867.782 408.967 866.937 408.123 865.895 408.123C864.853 408.123 864.008 408.967 864.008 410.008C864.008 411.05 864.853 411.894 865.895 411.894Z" fill="white"/>
<path d="M850.2 411.894C851.242 411.894 852.087 411.05 852.087 410.008C852.087 408.967 851.242 408.123 850.2 408.123C849.157 408.123 848.312 408.967 848.312 410.008C848.312 411.05 849.157 411.894 850.2 411.894Z" fill="white"/>
<path d="M834.496 411.894C835.539 411.894 836.384 411.049 836.384 410.008C836.384 408.967 835.539 408.123 834.496 408.123C833.454 408.123 832.609 408.967 832.609 410.008C832.609 411.049 833.454 411.894 834.496 411.894Z" fill="white"/>
</g>
<defs>
<linearGradient id="paint0_linear_2_497" x1="538.691" y1="561.58" x2="1026.67" y2="561.58" gradientUnits="userSpaceOnUse">
<stop stop-color="#DA687B"/>
<stop offset="0.33" stop-color="#822B9C"/>
<stop offset="0.53" stop-color="#5008AF"/>
<stop offset="0.54" stop-color="#510CB0"/>
<stop offset="1" stop-color="#76CCEE"/>
</linearGradient>
<linearGradient id="paint1_linear_2_497" x1="0.350788" y1="454" x2="1415.67" y2="454" gradientUnits="userSpaceOnUse">
<stop stop-color="#76CCEE"/>
<stop offset="0.3" stop-color="#5521B7"/>
<stop offset="0.45" stop-color="#5008AF"/>
<stop offset="0.52" stop-color="#822FC6"/>
<stop offset="0.67" stop-color="#FF90FF"/>
<stop offset="1" stop-color="#DA687B"/>
</linearGradient>
<linearGradient id="paint2_linear_2_497" x1="11.3505" y1="457.008" x2="1419.61" y2="457.008" gradientUnits="userSpaceOnUse">
<stop stop-color="#7CC6E7"/>
<stop offset="0.09" stop-color="#7394D7"/>
<stop offset="0.29" stop-color="#5830BB"/>
<stop offset="0.3" stop-color="#572AB9"/>
<stop offset="0.45" stop-color="#500AB0"/>
<stop offset="0.49" stop-color="#6B1DBB"/>
<stop offset="0.63" stop-color="#D56FE9"/>
<stop offset="0.67" stop-color="#F88CF9"/>
<stop offset="0.94" stop-color="#DA7599"/>
<stop offset="1" stop-color="#D46E82"/>
</linearGradient>
<linearGradient id="paint3_linear_2_497" x1="22.3499" y1="461.5" x2="1424.65" y2="461.5" gradientUnits="userSpaceOnUse">
<stop stop-color="#83C0E0"/>
<stop offset="0.09" stop-color="#7A91D1"/>
<stop offset="0.29" stop-color="#5B39BE"/>
<stop offset="0.3" stop-color="#5932BC"/>
<stop offset="0.45" stop-color="#510CB0"/>
<stop offset="0.49" stop-color="#691BBA"/>
<stop offset="0.63" stop-color="#D16BE3"/>
<stop offset="0.67" stop-color="#F087F4"/>
<stop offset="0.94" stop-color="#D47B9E"/>
<stop offset="1" stop-color="#CE7589"/>
</linearGradient>
<linearGradient id="paint4_linear_2_497" x1="33.386" y1="465.455" x2="1428.78" y2="465.455" gradientUnits="userSpaceOnUse">
<stop stop-color="#89B9D8"/>
<stop offset="0.09" stop-color="#818ECB"/>
<stop offset="0.29" stop-color="#5D41C0"/>
<stop offset="0.3" stop-color="#5C3BBE"/>
<stop offset="0.45" stop-color="#510EB1"/>
<stop offset="0.49" stop-color="#681ABA"/>
<stop offset="0.63" stop-color="#CC67DE"/>
<stop offset="0.67" stop-color="#E983EE"/>
<stop offset="0.94" stop-color="#CD80A4"/>
<stop offset="1" stop-color="#C77B91"/>
</linearGradient>
<linearGradient id="paint5_linear_2_497" x1="46.3507" y1="469.432" x2="1433.52" y2="469.432" gradientUnits="userSpaceOnUse">
<stop stop-color="#8FB3D1"/>
<stop offset="0.09" stop-color="#888BC5"/>
<stop offset="0.29" stop-color="#5F4AC3"/>
<stop offset="0.3" stop-color="#5E43C1"/>
<stop offset="0.45" stop-color="#5210B1"/>
<stop offset="0.49" stop-color="#6618B9"/>
<stop offset="0.63" stop-color="#C763D8"/>
<stop offset="0.67" stop-color="#E27FE8"/>
<stop offset="0.94" stop-color="#C686AA"/>
<stop offset="1" stop-color="#C18198"/>
</linearGradient>
<linearGradient id="paint6_linear_2_497" x1="57.3512" y1="472.985" x2="1437.5" y2="472.985" gradientUnits="userSpaceOnUse">
<stop stop-color="#95ADCA"/>
<stop offset="0.09" stop-color="#8E88BE"/>
<stop offset="0.29" stop-color="#6153C5"/>
<stop offset="0.3" stop-color="#604CC3"/>
<stop offset="0.45" stop-color="#5211B2"/>
<stop offset="0.49" stop-color="#6417B8"/>
<stop offset="0.63" stop-color="#C25FD3"/>
<stop offset="0.67" stop-color="#DA7AE3"/>
<stop offset="0.94" stop-color="#C08CAF"/>
<stop offset="1" stop-color="#BB879F"/>
</linearGradient>
<linearGradient id="paint7_linear_2_497" x1="67.3506" y1="476.992" x2="1443.69" y2="476.992" gradientUnits="userSpaceOnUse">
<stop stop-color="#9CA7C3"/>
<stop offset="0.09" stop-color="#9585B8"/>
<stop offset="0.29" stop-color="#645BC8"/>
<stop offset="0.3" stop-color="#6254C6"/>
<stop offset="0.45" stop-color="#5313B2"/>
<stop offset="0.49" stop-color="#6216B7"/>
<stop offset="0.63" stop-color="#BE5BCD"/>
<stop offset="0.67" stop-color="#D376DD"/>
<stop offset="0.94" stop-color="#B992B5"/>
<stop offset="1" stop-color="#B48EA6"/>
</linearGradient>
<linearGradient id="paint8_linear_2_497" x1="79.3503" y1="480.545" x2="1451.81" y2="480.545" gradientUnits="userSpaceOnUse">
<stop stop-color="#A2A0BC"/>
<stop offset="0.09" stop-color="#9C82B2"/>
<stop offset="0.29" stop-color="#6664CA"/>
<stop offset="0.3" stop-color="#645DC8"/>
<stop offset="0.45" stop-color="#5315B3"/>
<stop offset="0.49" stop-color="#6014B6"/>
<stop offset="0.63" stop-color="#B957C8"/>
<stop offset="0.67" stop-color="#CC71D7"/>
<stop offset="0.94" stop-color="#B298BB"/>
<stop offset="1" stop-color="#AE94AD"/>
</linearGradient>
<linearGradient id="paint9_linear_2_497" x1="90.3505" y1="485.068" x2="1458.75" y2="485.068" gradientUnits="userSpaceOnUse">
<stop stop-color="#A89AB5"/>
<stop offset="0.09" stop-color="#A380AC"/>
<stop offset="0.29" stop-color="#686DCD"/>
<stop offset="0.3" stop-color="#6766CB"/>
<stop offset="0.45" stop-color="#5417B3"/>
<stop offset="0.49" stop-color="#5F13B6"/>
<stop offset="0.63" stop-color="#B453C3"/>
<stop offset="0.67" stop-color="#C46DD2"/>
<stop offset="0.94" stop-color="#AC9EC1"/>
<stop offset="1" stop-color="#A89AB5"/>
</linearGradient>
<linearGradient id="paint10_linear_2_497" x1="100.35" y1="488.061" x2="1467.67" y2="488.061" gradientUnits="userSpaceOnUse">
<stop stop-color="#AE94AD"/>
<stop offset="0.09" stop-color="#AA7DA6"/>
<stop offset="0.29" stop-color="#6A76CF"/>
<stop offset="0.3" stop-color="#696ECD"/>
<stop offset="0.45" stop-color="#5419B4"/>
<stop offset="0.49" stop-color="#5D12B5"/>
<stop offset="0.63" stop-color="#AF4FBD"/>
<stop offset="0.67" stop-color="#BD69CC"/>
<stop offset="0.94" stop-color="#A5A3C6"/>
<stop offset="1" stop-color="#A2A0BC"/>
</linearGradient>
<linearGradient id="paint11_linear_2_497" x1="113.351" y1="492.553" x2="1475.61" y2="492.553" gradientUnits="userSpaceOnUse">
<stop stop-color="#B48EA6"/>
<stop offset="0.09" stop-color="#B17AA0"/>
<stop offset="0.29" stop-color="#6D7FD1"/>
<stop offset="0.3" stop-color="#6B77CF"/>
<stop offset="0.45" stop-color="#541BB5"/>
<stop offset="0.49" stop-color="#5B10B4"/>
<stop offset="0.63" stop-color="#AB4BB8"/>
<stop offset="0.67" stop-color="#B664C6"/>
<stop offset="0.94" stop-color="#9EA9CC"/>
<stop offset="1" stop-color="#9CA7C3"/>
</linearGradient>
<linearGradient id="paint12_linear_2_497" x1="124.35" y1="496.038" x2="1484.81" y2="496.038" gradientUnits="userSpaceOnUse">
<stop stop-color="#BB879F"/>
<stop offset="0.09" stop-color="#B8779A"/>
<stop offset="0.29" stop-color="#6F87D4"/>
<stop offset="0.3" stop-color="#6D7FD2"/>
<stop offset="0.45" stop-color="#551DB5"/>
<stop offset="0.49" stop-color="#590FB3"/>
<stop offset="0.63" stop-color="#A647B2"/>
<stop offset="0.67" stop-color="#AF60C0"/>
<stop offset="0.94" stop-color="#97AFD2"/>
<stop offset="1" stop-color="#95ADCA"/>
</linearGradient>
<linearGradient id="paint13_linear_2_497" x1="135.35" y1="499.023" x2="1493.54" y2="499.023" gradientUnits="userSpaceOnUse">
<stop stop-color="#C18198"/>
<stop offset="0.09" stop-color="#BE7493"/>
<stop offset="0.29" stop-color="#7190D6"/>
<stop offset="0.3" stop-color="#6F88D4"/>
<stop offset="0.45" stop-color="#551EB6"/>
<stop offset="0.49" stop-color="#570EB2"/>
<stop offset="0.63" stop-color="#A143AD"/>
<stop offset="0.67" stop-color="#A75CBB"/>
<stop offset="0.94" stop-color="#91B5D7"/>
<stop offset="1" stop-color="#8FB3D1"/>
</linearGradient>
<linearGradient id="paint14_linear_2_497" x1="146.35" y1="503.53" x2="1501.65" y2="503.53" gradientUnits="userSpaceOnUse">
<stop stop-color="#C77B91"/>
<stop offset="0.09" stop-color="#C5718D"/>
<stop offset="0.29" stop-color="#7399D9"/>
<stop offset="0.3" stop-color="#7190D7"/>
<stop offset="0.45" stop-color="#5620B6"/>
<stop offset="0.49" stop-color="#550CB1"/>
<stop offset="0.63" stop-color="#9C3FA7"/>
<stop offset="0.67" stop-color="#A057B5"/>
<stop offset="0.94" stop-color="#8ABBDD"/>
<stop offset="1" stop-color="#89B9D8"/>
</linearGradient>
<linearGradient id="paint15_linear_2_497" x1="157.351" y1="506.977" x2="1509.49" y2="506.977" gradientUnits="userSpaceOnUse">
<stop stop-color="#CE7589"/>
<stop offset="0.09" stop-color="#CC6E87"/>
<stop offset="0.29" stop-color="#76A2DB"/>
<stop offset="0.3" stop-color="#7499D9"/>
<stop offset="0.45" stop-color="#5622B7"/>
<stop offset="0.49" stop-color="#540BB1"/>
<stop offset="0.63" stop-color="#983BA2"/>
<stop offset="0.67" stop-color="#9953AF"/>
<stop offset="0.94" stop-color="#83C0E3"/>
<stop offset="1" stop-color="#83C0E0"/>
</linearGradient>
<linearGradient id="paint16_linear_2_497" x1="168.35" y1="511.462" x2="1518.7" y2="511.462" gradientUnits="userSpaceOnUse">
<stop stop-color="#D46E82"/>
<stop offset="0.09" stop-color="#D36B81"/>
<stop offset="0.29" stop-color="#78AADE"/>
<stop offset="0.3" stop-color="#76A1DC"/>
<stop offset="0.45" stop-color="#5724B7"/>
<stop offset="0.49" stop-color="#5209B0"/>
<stop offset="0.63" stop-color="#93379C"/>
<stop offset="0.67" stop-color="#914EAA"/>
<stop offset="0.94" stop-color="#7DC6E8"/>
<stop offset="1" stop-color="#7CC6E7"/>
</linearGradient>
<linearGradient id="paint17_linear_2_497" x1="180.351" y1="514.955" x2="1527.61" y2="514.955" gradientUnits="userSpaceOnUse">
<stop offset="0.09" stop-color="#DA687B"/>
<stop offset="0.29" stop-color="#7AB3E0"/>
<stop offset="0.43" stop-color="#5C3ABD"/>
<stop offset="0.49" stop-color="#5008AF"/>
<stop offset="0.63" stop-color="#8E3397"/>
<stop offset="0.8" stop-color="#808CC9"/>
<stop offset="0.94" stop-color="#76CCEE"/>
</linearGradient>
</defs>
</svg>
